<svg xmlns="http://www.w3.org/2000/svg" width="500" height="400" viewBox="0 0 500 400">
  <defs>
    <linearGradient id="about-gradient" x1="0%" y1="0%" x2="100%" y2="100%">
      <stop offset="0%" stop-color="#00c9a7" />
      <stop offset="100%" stop-color="#00c9a7" stop-opacity="0.7" />
    </linearGradient>
  </defs>
  
  <!-- Background -->
  <rect x="0" y="0" width="500" height="400" fill="#f8f9fa" />
  
  <!-- Laboratory building -->
  <rect x="100" y="100" width="300" height="200" fill="white" stroke="#00c9a7" stroke-width="3" />
  
  <!-- Roof -->
  <polygon points="80,100 250,50 420,100" fill="url(#about-gradient)" />
  
  <!-- Door -->
  <rect x="225" y="200" width="50" height="100" fill="#4e54c8" />
  <rect x="235" y="250" width="30" height="50" fill="#8f94fb" />
  <circle cx="245" cy="240" r="5" fill="white" />
  
  <!-- Windows -->
  <rect x="150" y="150" width="40" height="40" fill="#8f94fb" stroke="white" stroke-width="2" />
  <path d="M150,170 L190,170" stroke="white" stroke-width="2" />
  <path d="M170,150 L170,190" stroke="white" stroke-width="2" />
  
  <rect x="310" y="150" width="40" height="40" fill="#8f94fb" stroke="white" stroke-width="2" />
  <path d="M310,170 L350,170" stroke="white" stroke-width="2" />
  <path d="M330,150 L330,190" stroke="white" stroke-width="2" />
  
  <!-- Medical symbols -->
  <circle cx="150" cy="250" r="20" fill="white" stroke="#00c9a7" stroke-width="2" />
  <path d="M140,250 L160,250 M150,240 L150,260" stroke="#00c9a7" stroke-width="2" />
  
  <circle cx="350" cy="250" r="20" fill="white" stroke="#00c9a7" stroke-width="2" />
  <path d="M340,250 L360,250 M350,240 L350,260" stroke="#00c9a7" stroke-width="2" />
  
  <!-- People -->
  <!-- Person 1 -->
  <circle cx="50" cy="300" r="15" fill="#4e54c8" />
  <rect x="45" y="315" width="10" height="30" fill="#4e54c8" />
  <line x1="45" y1="325" x2="30" y2="340" stroke="#4e54c8" stroke-width="5" />
  <line x1="55" y1="325" x2="70" y2="340" stroke="#4e54c8" stroke-width="5" />
  <line x1="45" y1="345" x2="40" y2="370" stroke="#4e54c8" stroke-width="5" />
  <line x1="55" y1="345" x2="60" y2="370" stroke="#4e54c8" stroke-width="5" />
  
  <!-- Person 2 -->
  <circle cx="450" cy="300" r="15" fill="#00c9a7" />
  <rect x="445" y="315" width="10" height="30" fill="#00c9a7" />
  <line x1="445" y1="325" x2="430" y2="340" stroke="#00c9a7" stroke-width="5" />
  <line x1="455" y1="325" x2="470" y2="340" stroke="#00c9a7" stroke-width="5" />
  <line x1="445" y1="345" x2="440" y2="370" stroke="#00c9a7" stroke-width="5" />
  <line x1="455" y1="345" x2="460" y2="370" stroke="#00c9a7" stroke-width="5" />
  
  <!-- Trees -->
  <rect x="30" y="330" width="10" height="40" fill="#795548" />
  <circle cx="35" cy="310" r="20" fill="#00c9a7" />
  
  <rect x="460" y="330" width="10" height="40" fill="#795548" />
  <circle cx="465" cy="310" r="20" fill="#00c9a7" />
  
  <!-- Sun -->
  <circle cx="50" cy="50" r="30" fill="#ffeb3b" />
  <line x1="50" y1="10" x2="50" y2="0" stroke="#ffeb3b" stroke-width="3" />
  <line x1="50" y1="90" x2="50" y2="100" stroke="#ffeb3b" stroke-width="3" />
  <line x1="10" y1="50" x2="0" y2="50" stroke="#ffeb3b" stroke-width="3" />
  <line x1="90" y1="50" x2="100" y2="50" stroke="#ffeb3b" stroke-width="3" />
  <line x1="22" y1="22" x2="15" y2="15" stroke="#ffeb3b" stroke-width="3" />
  <line x1="78" y1="78" x2="85" y2="85" stroke="#ffeb3b" stroke-width="3" />
  <line x1="22" y1="78" x2="15" y2="85" stroke="#ffeb3b" stroke-width="3" />
  <line x1="78" y1="22" x2="85" y2="15" stroke="#ffeb3b" stroke-width="3" />
</svg>