<svg xmlns="http://www.w3.org/2000/svg" width="800" height="600" viewBox="0 0 800 600">
  <defs>
    <linearGradient id="hero-gradient" x1="0%" y1="0%" x2="100%" y2="100%">
      <stop offset="0%" stop-color="#4e54c8" />
      <stop offset="100%" stop-color="#8f94fb" />
    </linearGradient>
  </defs>
  
  <!-- Background -->
  <rect x="0" y="0" width="800" height="600" fill="#f8f9fa" />
  
  <!-- Doctor with stethoscope -->
  <circle cx="300" cy="250" r="120" fill="#ffffff" stroke="#4e54c8" stroke-width="2" />
  <path d="M260,200 Q300,150 340,200" stroke="#4e54c8" stroke-width="3" fill="none" />
  <circle cx="280" cy="190" r="10" fill="#4e54c8" />
  <circle cx="320" cy="190" r="10" fill="#4e54c8" />
  <path d="M280,240 Q300,260 320,240" stroke="#4e54c8" stroke-width="3" fill="none" />
  
  <!-- Stethoscope -->
  <path d="M340,220 C380,230 390,280 370,320 C350,360 300,350 290,320" stroke="#4e54c8" stroke-width="3" fill="none" />
  <circle cx="290" cy="320" r="15" fill="#8f94fb" />
  
  <!-- Medical symbols -->
  <rect x="500" y="150" width="60" height="60" rx="10" fill="url(#hero-gradient)" />
  <path d="M530,160 L530,200" stroke="white" stroke-width="5" />
  <path d="M510,180 L550,180" stroke="white" stroke-width="5" />
  
  <circle cx="500" cy="250" r="30" fill="url(#hero-gradient)" />
  <path d="M490,250 L510,250" stroke="white" stroke-width="3" />
  <path d="M500,240 L500,260" stroke="white" stroke-width="3" />
  
  <rect x="550" y="230" width="50" height="50" rx="5" fill="url(#hero-gradient)" />
  <line x1="560" y1="255" x2="590" y2="255" stroke="white" stroke-width="3" />
  
  <!-- Health data visualization -->
  <path d="M450,350 L470,330 L490,360 L510,320 L530,350 L550,330 L570,370 L590,340" stroke="#4e54c8" stroke-width="3" fill="none" />
  <circle cx="450" cy="350" r="5" fill="#4e54c8" />
  <circle cx="470" cy="330" r="5" fill="#4e54c8" />
  <circle cx="490" cy="360" r="5" fill="#4e54c8" />
  <circle cx="510" cy="320" r="5" fill="#4e54c8" />
  <circle cx="530" cy="350" r="5" fill="#4e54c8" />
  <circle cx="550" cy="330" r="5" fill="#4e54c8" />
  <circle cx="570" cy="370" r="5" fill="#4e54c8" />
  <circle cx="590" cy="340" r="5" fill="#4e54c8" />
  
  <!-- DNA strand -->
  <path d="M150,400 C200,350 250,450 300,400 C350,350 400,450 450,400" stroke="#8f94fb" stroke-width="3" fill="none" />
  <path d="M150,450 C200,400 250,500 300,450 C350,400 400,500 450,450" stroke="#4e54c8" stroke-width="3" fill="none" />
  
  <!-- Connecting lines -->
  <line x1="180" y1="400" x2="180" y2="450" stroke="#4e54c8" stroke-width="2" />
  <line x1="240" y1="425" x2="240" y2="475" stroke="#4e54c8" stroke-width="2" />
  <line x1="300" y1="400" x2="300" y2="450" stroke="#4e54c8" stroke-width="2" />
  <line x1="360" y1="425" x2="360" y2="475" stroke="#4e54c8" stroke-width="2" />
  <line x1="420" y1="400" x2="420" y2="450" stroke="#4e54c8" stroke-width="2" />
</svg>